Coordinates
version=1
nRows=22
nColumns=26
inDegrees=yes

Units are S.I. units (second, meters, Newtons, ...)
Angles are in degrees.

endheader
time	pelvis_tilt	pelvis_list	pelvis_rotation	pelvis_tx	pelvis_ty	pelvis_tz	hip_flexion_r	hip_adduction_r	hip_rotation_r	knee_angle_r	knee_angle_r_beta	ankle_angle_r	subtalar_angle_r	mtp_angle_r	hip_flexion_l	hip_adduction_l	hip_rotation_l	knee_angle_l	knee_angle_l_beta	ankle_angle_l	subtalar_angle_l	mtp_angle_l	lumbar_extension	lumbar_bending	lumbar_rotation
     47.41951906	     -9.02646453	      1.23968070	     -1.73219510	     -0.04389299	      1.09518563	      0.19312430	     29.61727736	      1.89863189	      3.56871915	     28.76869357	     28.76869357	     -5.41243470	    -17.91696345	      0.00000000	     -7.68921683	      3.06915475	     -3.12896508	     19.72083817	     19.72083817	    -17.69240974	     -8.82700826	      0.00000000	     -8.94474829	     -0.66369575	     -3.08074606
     47.42951906	     -9.14130163	      2.03726077	     -2.17873871	     -0.04212471	      1.09671586	      0.19373677	     28.69161277	      1.46253301	      4.68215515	     23.22103761	     23.22103761	     -4.63187447	    -15.81306093	      0.00000000	     -8.26610893	      4.01270171	     -2.53365662	     20.03304236	     20.03304236	    -21.03190066	    -10.14954165	      0.00000000	     -8.60347123	     -1.43566766	     -3.00083953
     47.43951906	     -9.15220449	      2.78577687	     -2.53801274	     -0.04054713	      1.09728428	      0.19434928	     27.79120763	      0.97324544	      5.50193435	     18.38012615	     18.38012615	     -3.73021818	    -13.64682987	      0.00000000	     -8.62510141	      4.88234150	     -1.69401864	     21.06791158	     21.06791158	    -23.46715379	    -11.06580099	      0.00000000	     -8.38216862	     -2.18106434	     -2.90619444
     47.44951906	     -9.00196650	      3.40456198	     -2.89559035	     -0.03931287	      1.09707618	      0.19462131	     27.00847895	      0.50224176	      5.62644293	     14.59923057	     14.59923057	     -2.71546767	    -11.35393295	      0.00000000	     -8.85994493	      5.74280834	     -0.42252848	     22.86361495	     22.86361495	    -24.20486712	    -12.01387825	      0.00000000	     -8.41264547	     -2.71828005	     -2.76614786
     47.45951906	     -8.85190963	      3.73524399	     -3.38898800	     -0.03848888	      1.09594180	      0.19505386	     26.52838170	      0.40307666	      5.71060191	     11.99710166	     11.99710166	     -2.17658420	     -9.72488359	      0.00000000	     -8.74728441	      6.32692553	      0.60868608	     25.46121229	     25.46121229	    -23.14815959	    -12.60887622	      0.00000000	     -8.48740632	     -2.91879218	     -2.55182497
     47.46951906	     -8.37441550	      4.18041360	     -4.09932313	     -0.03815494	      1.09439258	      0.19559205	     26.10609247	      0.29690827	      5.85983588	     10.70428565	     10.70428565	     -2.06701322	     -8.68463039	      0.00000000	     -8.66586102	      7.14497444	      1.43172597	     28.44710784	     28.44710784	    -22.18825850	    -13.32732973	      0.00000000	     -9.01829173	     -3.28782443	     -2.08569674
     47.47951906	     -8.15889677	      3.84153166	     -4.39754785	     -0.03780565	      1.09163310	      0.19570404	     25.79433404	      0.82830584	      5.25380432	      9.92413715	      9.92413715	     -1.73947449	     -7.28335914	      0.00000000	     -7.86474233	      6.92576756	      1.78500727	     32.43521961	     32.43521961	    -20.02447630	    -13.38532660	      0.00000000	     -9.29684410	     -2.64348764	     -2.26555318
     47.48951906	     -7.64000998	      3.77641101	     -4.95852135	     -0.03785801	      1.08833956	      0.19587676	     25.40857836	      1.21937096	      5.20501308	     10.19950630	     10.19950630	     -1.51246299	     -6.58957536	      0.00000000	     -7.19279207	      7.06919645	      1.75772824	     36.47095182	     36.47095182	    -18.79746534	    -13.77775075	      0.00000000	     -9.96388680	     -2.39475193	     -2.02549087
     47.49951906	     -6.87618086	      3.60507031	     -5.51185892	     -0.03788279	      1.08442349	      0.19602074	     24.68516791	      1.70255701	      5.51492911	     11.00827630	     11.00827630	     -1.34908296	     -6.45648692	      0.00000000	     -6.63557827	      7.07487528	      1.46903044	     40.59222777	     40.59222777	    -18.63134327	    -14.63923881	      0.00000000	    -10.93598154	     -2.06113728	     -1.74756772
     47.50951906	     -6.17257940	      3.37410607	     -5.98018866	     -0.03801654	      1.07941300	      0.19611913	     23.97672297	      2.18351384	      5.72919290	     12.24710416	     12.24710416	     -1.50150007	     -6.45627979	      0.00000000	     -5.81875848	      6.88915152	      0.96246105	     44.90971232	     44.90971232	    -18.67662845	    -15.31195774	      0.00000000	    -11.84486618	     -1.68208232	     -1.37440644
     47.51951906	     -5.79842337	      3.06516202	     -6.43485753	     -0.03885743	      1.07331106	      0.19606877	     23.66914306	      2.80546547	      6.13250603	     14.02225139	     14.02225139	     -2.26464706	     -7.18725293	      0.00000000	     -4.38955446	      6.49459394	      0.31196401	     49.48263112	     49.48263112	    -18.45222217	    -15.84246019	      0.00000000	    -12.45691002	     -1.18321694	     -0.90482043
     47.52951906	     -5.50440135	      2.40757163	     -6.98303379	     -0.04030079	      1.06652425	      0.19639808	     23.50994534	      3.97173508	      6.83902782	     16.74622841	     16.74622841	     -1.55838565	     -9.00793131	      0.00000000	     -2.74726314	      5.55481075	     -0.62861930	     54.15975649	     54.15975649	    -17.84113007	    -16.45448384	      0.00000000	    -13.09042071	     -0.34728999	     -0.09281817
     47.53951906	     -5.38829728	      1.77561936	     -7.53682632	     -0.04219048	      1.05848512	      0.19697087	     23.61766819	      5.25973154	      7.41665501	     20.42572796	     20.42572796	      1.94820600	    -11.50462500	      0.00000000	     -0.76923468	      4.44989132	     -1.63899989	     58.92892941	     58.92892941	    -16.49879136	    -16.74719928	      0.00000000	    -13.52527101	      0.42563121	      0.79211256
     47.54951906	     -4.62000359	      1.20230754	     -8.00321499	     -0.04444542	      1.05107942	      0.19733656	     23.16608666	      6.41729281	      7.90906534	     24.54783494	     24.54783494	      5.64884576	    -13.99041920	      0.00000000	      0.51358213	      3.45868002	     -2.49323417	     63.30263925	     63.30263925	    -15.44125866	    -17.75665004	      0.00000000	    -14.77097353	      1.03071131	      1.25394206
     47.55951906	     -5.76728304	      0.78365462	     -8.66150594	     -0.04911262	      1.04111134	      0.19772061	     25.77306319	      7.57196093	      7.77232173	     29.93228394	     29.93228394	      8.72977461	    -14.45258215	      0.00000000	      4.45908296	      2.14302358	     -3.50352012	     68.37490444	     68.37490444	    -13.41568967	    -17.78396279	      0.00000000	    -13.99451085	      1.66555429	      2.30783902
     47.56951906	     -5.91971719	     -0.07873418	     -9.32043190	     -0.05313805	      1.03391723	      0.19806971	     26.57270989	      8.79282712	      7.70205395	     34.04545568	     34.04545568	     11.15421059	    -14.77052718	      0.00000000	      7.09279944	      0.49432315	     -4.30070438	     72.55837819	     72.55837819	    -12.46994052	    -18.81120009	      0.00000000	    -14.47484030	      2.66017529	      3.36711195
     47.57951906	     -6.33084729	     -0.61770670	     -9.67212588	     -0.05703570	      1.02758644	      0.19762967	     27.02366447	      9.17545536	      7.02281629	     37.14914209	     37.14914209	     14.41300521	    -13.28879799	      0.00000000	     10.14487602	     -0.69626227	     -4.47953005	     76.28097359	     76.28097359	    -11.44437769	    -19.46733907	      0.00000000	    -14.61371305	      3.40654611	      3.93925866
     47.58951906	     -6.45688692	     -1.36017843	     -9.88615722	     -0.06008391	      1.02288167	      0.19727238	     26.38040250	      9.66946199	      6.82855330	     39.01010022	     39.01010022	     17.08822650	    -12.32156218	      0.00000000	     12.82662690	     -2.08147654	     -4.44909484	     79.37023694	     79.37023694	    -10.83861840	    -20.31669230	      0.00000000	    -15.00501868	      4.33268401	      4.98013186
     47.59951906	     -6.82755011	     -1.68260301	     -9.66544402	     -0.06287049	      1.01892942	      0.19632849	     25.74068101	      9.47120977	      6.22218042	     40.23050943	     40.23050943	     19.78384789	    -10.89057884	      0.00000000	     15.95005736	     -2.84859255	     -3.86020906	     81.95735995	     81.95735995	    -10.01476176	    -20.71108716	      0.00000000	    -14.92610060	      4.90816702	      5.58240644
     47.60951906	     -6.96808832	     -2.08113316	     -9.35273432	     -0.06494367	      1.01689622	      0.19559273	     24.37490529	      9.29304712	      5.64317334	     40.63117751	     40.63117751	     21.78291133	     -9.92707732	      0.00000000	     18.69370780	     -3.58918735	     -3.19817488	     83.77219798	     83.77219798	     -9.33406667	    -21.14870090	      0.00000000	    -15.01171968	      5.50978254	      6.31955163
     47.61951906	     -7.09295806	     -2.34392358	     -8.85918604	     -0.06636233	      1.01639148	      0.19502972	     22.75547478	      8.89972097	      4.88306944	     40.62789138	     40.62789138	     23.48243352	     -8.64667229	      0.00000000	     21.33041023	     -4.09349480	     -2.41868890	     84.85963127	     84.85963127	     -8.53288100	    -21.25331049	      0.00000000	    -14.98562785	      5.91537037	      6.75313937
     47.62951906	     -7.26602091	     -2.31041947	     -8.37023275	     -0.06735237	      1.01701881	      0.19485574	     20.96085448	      8.34788354	      4.39075142	     40.15636690	     40.15636690	     24.67793031	     -7.68225638	      0.00000000	     23.88416637	     -4.27287804	     -1.82129813	     85.24897580	     85.24897580	     -7.57452256	    -21.20101534	      0.00000000	    -14.79829465	      5.89440027	      7.11034258
